# xmcd CD database file
#
# Track frame offsets:
#	150
#	15844
#	30212
#	40845
#	52840
#	68038
#	78364
#	90181
#	102598
#	116801
#	129868
#	140014
#	151274
#	161671
#	175234
#	184844
#	195571
#	208899
#	221634
#	233182
#
# Disc length: 3265 seconds
#
# Revision: 0
# Processed by: cddbd v1.5.2PL0 Copyright (c) Steve Scherf et al.
# Submitted via: jetAudio 7
#
DISCID=020cbf14
DTITLE=Various Artist - Vannemerwe Se Country Tekno Dans
DYEAR=1998
DGENRE=Dance
TTITLE0=If I Said You Had A Beautiful Body
TTITLE1=If You Love Me Let Me Know
TTITLE2=Grandma's Featherbed
TTITLE3=Blanket On The Ground
TTITLE4=Don't Forget To Remember
TTITLE5=Banks Of The Ohio
TTITLE6=Oh! Lonesome Me
TTITLE7=By Bye Love
TTITLE8=Let Your Love Flow
TTITLE9=Blue Moon Of Kentucky
TTITLE10=Some Broken Hearts
TTITLE11=Never Ending Song Of Love
TTITLE12=Heaven Is My Woman's Love
TTITLE13=Have I Told You Lately That I Love You
TTITLE14=You're My Best Friend
TTITLE15=Jambalayo
TTITLE16=Let Me Be There
TTITLE17=Green Green Grass Of Home
TTITLE18=Please Release Me
TTITLE19=Do What You Do Do Well
EXTD=YEAR: 1998 ID3G: 3
EXTT0=
EXTT1=
EXTT2=
EXTT3=
EXTT4=
EXTT5=
EXTT6=
EXTT7=
EXTT8=
EXTT9=
EXTT10=
EXTT11=
EXTT12=
EXTT13=
EXTT14=
EXTT15=
EXTT16=
EXTT17=
EXTT18=
EXTT19=
PLAYORDER=
